<?xml version="1.0" standalone="no"?>
<!DOCTYPE svg PUBLIC "-//W3C//DTD SVG 20010904//EN"
 "http://www.w3.org/TR/2001/REC-SVG-20010904/DTD/svg10.dtd">
<svg version="1.0" xmlns="http://www.w3.org/2000/svg"
 width="652.000000pt" height="652.000000pt" viewBox="0 0 652.000000 652.000000"
 preserveAspectRatio="xMidYMid meet">
<metadata>
Created by potrace 1.14, written by Peter Selinger 2001-2017
</metadata>
<g transform="translate(0.000000,652.000000) scale(0.100000,-0.100000)"
fill="#000000" stroke="none">
<path d="M351 6495 c-41 -13 -87 -33 -103 -45 -15 -11 -31 -20 -35 -20 -19 0
-132 -133 -158 -185 -59 -120 -55 84 -54 -2985 0 -2678 1 -2828 18 -2891 47
-173 191 -312 369 -355 87 -21 5672 -20 5751 1 185 49 331 200 370 383 8 39
11 809 11 2865 0 3054 3 2866 -56 2984 -37 74 -143 181 -214 216 -122 61 93
57 -2995 56 l-2830 0 -74 -24z"/>
</g>
</svg>
